<svg xmlns="http://www.w3.org/2000/svg" viewBox="0 0 2060 852" width="2060" height="852" font-family='Inter, "Helvetica Neue", Helvetica, Arial, "DejaVu Sans", sans-serif' role="img" aria-label="Harness benchmark · micro suite (5 tasks x 3 repeats) · micro-2">
<defs><linearGradient id="g-coral" x1="0" y1="0" x2="0" y2="1"><stop offset="0" stop-color="#ff2f5f"/><stop offset="1" stop-color="#ff9161"/></linearGradient><linearGradient id="g-violet" x1="0" y1="0" x2="0" y2="1"><stop offset="0" stop-color="#8b3dff"/><stop offset="1" stop-color="#ff7ab8"/></linearGradient><linearGradient id="g-muted" x1="0" y1="0" x2="0" y2="1"><stop offset="0" stop-color="#98a1bd"/><stop offset="1" stop-color="#eef0fa"/></linearGradient></defs>
<rect width="2060" height="852" fill="#ffffff"/>
<text x="40" y="48" font-size="26" font-weight="700" fill="#14172b">Harness benchmark · micro suite (5 tasks x 3 repeats) · micro-2</text>
<text x="40" y="76" font-size="14" fill="#5b6177">deepseek/deepseek-v4-flash · reasoning medium · 4 vCPU / 8g per task · same key, same model, same container limits</text>
<text x="40" y="96" font-size="12" fill="#8a90a6">Each panel has its own scale from zero. ★ marks the best column in a panel.</text>
<g transform="translate(40,112)"><g><title>OpenHuman (openhuman): 93%</title><path d="M49,268 V98.53333333333336 Q49,92.53333333333336 55,92.53333333333336 H81 Q87,92.53333333333336 87,98.53333333333336 V268 Z" fill="url(#g-coral)"/><text x="68" y="110.53333333333336" text-anchor="middle" font-size="12.5" font-weight="700" fill="#ffffff">93%</text></g><text x="68" y="70.53333333333336" text-anchor="middle" font-size="10.5" font-weight="700" fill="#ff2f5f">Open</text><text x="68" y="82.53333333333336" text-anchor="middle" font-size="10.5" font-weight="700" fill="#ff2f5f">Human</text><g><title>ClaudeCode (claude-code): 87%</title><path d="M101,268 V111.06666666666666 Q101,105.06666666666666 107,105.06666666666666 H133 Q139,105.06666666666666 139,111.06666666666666 V268 Z" fill="url(#g-muted)"/><text x="120" y="123.06666666666666" text-anchor="middle" font-size="12.5" font-weight="700" fill="#1b2038">87%</text></g><text x="120" y="83.06666666666666" text-anchor="middle" font-size="10.5" font-weight="500" fill="#5b6177">Claude</text><text x="120" y="95.06666666666666" text-anchor="middle" font-size="10.5" font-weight="500" fill="#5b6177">Code</text><g><title>Codex (codex): 93%</title><path d="M153,268 V98.53333333333336 Q153,92.53333333333336 159,92.53333333333336 H185 Q191,92.53333333333336 191,98.53333333333336 V268 Z" fill="url(#g-muted)"/><text x="172" y="110.53333333333336" text-anchor="middle" font-size="12.5" font-weight="700" fill="#1b2038">93%</text></g><text x="172" y="82.53333333333336" text-anchor="middle" font-size="10.5" font-weight="500" fill="#5b6177">Codex</text><g><title>OpenCode (opencode): 100%</title><path d="M205,268 V86 Q205,80 211,80 H237 Q243,80 243,86 V268 Z" fill="url(#g-muted)"/><text x="224" y="98" text-anchor="middle" font-size="12.5" font-weight="700" fill="#1b2038">100%</text></g><polygon points="224.0,30.5 225.5,34.0 229.2,34.3 226.4,36.8 227.2,40.4 224.0,38.5 220.8,40.4 221.6,36.8 218.8,34.3 222.5,34.0" fill="#d99a00"/><text x="224" y="58" text-anchor="middle" font-size="10.5" font-weight="500" fill="#5b6177">Open</text><text x="224" y="70" text-anchor="middle" font-size="10.5" font-weight="500" fill="#5b6177">Code</text><g><title>OpenClaw (openclaw): 100%</title><path d="M257,268 V86 Q257,80 263,80 H289 Q295,80 295,86 V268 Z" fill="url(#g-muted)"/><text x="276" y="98" text-anchor="middle" font-size="12.5" font-weight="700" fill="#1b2038">100%</text></g><polygon points="276.0,30.5 277.5,34.0 281.2,34.3 278.4,36.8 279.2,40.4 276.0,38.5 272.8,40.4 273.6,36.8 270.8,34.3 274.5,34.0" fill="#d99a00"/><text x="276" y="58" text-anchor="middle" font-size="10.5" font-weight="500" fill="#5b6177">Open</text><text x="276" y="70" text-anchor="middle" font-size="10.5" font-weight="500" fill="#5b6177">Claw</text><g><title>Hermes (hermes): 93%</title><path d="M309,268 V98.53333333333336 Q309,92.53333333333336 315,92.53333333333336 H341 Q347,92.53333333333336 347,98.53333333333336 V268 Z" fill="url(#g-muted)"/><text x="328" y="110.53333333333336" text-anchor="middle" font-size="12.5" font-weight="700" fill="#1b2038">93%</text></g><text x="328" y="82.53333333333336" text-anchor="middle" font-size="10.5" font-weight="500" fill="#5b6177">Hermes</text><line x1="12" y1="268" x2="384" y2="268" stroke="#c9cddb" stroke-width="1.5"/><text x="198" y="300" text-anchor="middle" font-size="16" font-weight="600" fill="#14172b">Tasks resolved</text><text x="198" y="319" text-anchor="middle" font-size="11" fill="#8a90a6">↑ higher is better</text></g>
<g transform="translate(436,112)"><g><title>OpenHuman (openhuman): 0.04¢</title><path d="M49,268 V216.32897985215482 Q49,210.32897985215482 55,210.32897985215482 H81 Q87,210.32897985215482 87,216.32897985215482 V268 Z" fill="url(#g-coral)"/><text x="68" y="228.32897985215482" text-anchor="middle" font-size="12.5" font-weight="700" fill="#ffffff">0.04¢</text></g><polygon points="68.0,160.8 69.5,164.3 73.2,164.6 70.4,167.1 71.2,170.8 68.0,168.8 64.8,170.8 65.6,167.1 62.8,164.6 66.5,164.3" fill="#d99a00"/><text x="68" y="188.32897985215482" text-anchor="middle" font-size="10.5" font-weight="700" fill="#ff2f5f">Open</text><text x="68" y="200.32897985215482" text-anchor="middle" font-size="10.5" font-weight="700" fill="#ff2f5f">Human</text><g><title>ClaudeCode (claude-code): 0.07¢</title><path d="M101,268 V165.33013496388213 Q101,159.33013496388213 107,159.33013496388213 H133 Q139,159.33013496388213 139,165.33013496388213 V268 Z" fill="url(#g-muted)"/><text x="120" y="177.33013496388213" text-anchor="middle" font-size="12.5" font-weight="700" fill="#1b2038">0.07¢</text></g><text x="120" y="137.33013496388213" text-anchor="middle" font-size="10.5" font-weight="500" fill="#5b6177">Claude</text><text x="120" y="149.33013496388213" text-anchor="middle" font-size="10.5" font-weight="500" fill="#5b6177">Code</text><g><title>Codex (codex): 0.06¢</title><path d="M153,268 V180.0146820830158 Q153,174.0146820830158 159,174.0146820830158 H185 Q191,174.0146820830158 191,180.0146820830158 V268 Z" fill="url(#g-muted)"/><text x="172" y="192.0146820830158" text-anchor="middle" font-size="12.5" font-weight="700" fill="#1b2038">0.06¢</text></g><text x="172" y="164.0146820830158" text-anchor="middle" font-size="10.5" font-weight="500" fill="#5b6177">Codex</text><g><title>OpenCode (opencode): 0.12¢</title><path d="M205,268 V86 Q205,80 211,80 H237 Q243,80 243,86 V268 Z" fill="url(#g-muted)"/><text x="224" y="98" text-anchor="middle" font-size="12.5" font-weight="700" fill="#1b2038">0.12¢</text></g><text x="224" y="58" text-anchor="middle" font-size="10.5" font-weight="500" fill="#5b6177">Open</text><text x="224" y="70" text-anchor="middle" font-size="10.5" font-weight="500" fill="#5b6177">Code</text><g><title>OpenClaw (openclaw): 0.06¢</title><path d="M257,268 V182.38249745589872 Q257,176.38249745589872 263,176.38249745589872 H289 Q295,176.38249745589872 295,182.38249745589872 V268 Z" fill="url(#g-muted)"/><text x="276" y="194.38249745589872" text-anchor="middle" font-size="12.5" font-weight="700" fill="#1b2038">0.06¢</text></g><text x="276" y="154.38249745589872" text-anchor="middle" font-size="10.5" font-weight="500" fill="#5b6177">Open</text><text x="276" y="166.38249745589872" text-anchor="middle" font-size="10.5" font-weight="500" fill="#5b6177">Claw</text><g><title>Hermes (hermes): 0.06¢</title><path d="M309,268 V173.6904500623047 Q309,167.6904500623047 315,167.6904500623047 H341 Q347,167.6904500623047 347,173.6904500623047 V268 Z" fill="url(#g-muted)"/><text x="328" y="185.6904500623047" text-anchor="middle" font-size="12.5" font-weight="700" fill="#1b2038">0.06¢</text></g><text x="328" y="157.6904500623047" text-anchor="middle" font-size="10.5" font-weight="500" fill="#5b6177">Hermes</text><line x1="12" y1="268" x2="384" y2="268" stroke="#c9cddb" stroke-width="1.5"/><text x="198" y="300" text-anchor="middle" font-size="16" font-weight="600" fill="#14172b">Cost per task (cents)</text><text x="198" y="319" text-anchor="middle" font-size="11" fill="#8a90a6">↓ lower is better</text></g>
<g transform="translate(832,112)"><g><title>OpenHuman (openhuman): 4.5k</title><path d="M49,268 V206.62245630835528 Q49,200.62245630835528 55,200.62245630835528 H81 Q87,200.62245630835528 87,206.62245630835528 V268 Z" fill="url(#g-coral)"/><text x="68" y="218.62245630835528" text-anchor="middle" font-size="12.5" font-weight="700" fill="#ffffff">4.5k</text></g><text x="68" y="178.62245630835528" text-anchor="middle" font-size="10.5" font-weight="700" fill="#ff2f5f">Open</text><text x="68" y="190.62245630835528" text-anchor="middle" font-size="10.5" font-weight="700" fill="#ff2f5f">Human</text><g><title>ClaudeCode (claude-code): 12.0k</title><path d="M101,268 V94.13151384566277 Q101,88.13151384566277 107,88.13151384566277 H133 Q139,88.13151384566277 139,94.13151384566277 V268 Z" fill="url(#g-muted)"/><text x="120" y="106.13151384566277" text-anchor="middle" font-size="12.5" font-weight="700" fill="#1b2038">12.0k</text></g><text x="120" y="66.13151384566277" text-anchor="middle" font-size="10.5" font-weight="500" fill="#5b6177">Claude</text><text x="120" y="78.13151384566277" text-anchor="middle" font-size="10.5" font-weight="500" fill="#5b6177">Code</text><g><title>Codex (codex): 7.7k</title><path d="M153,268 V159.0035910940867 Q153,153.0035910940867 159,153.0035910940867 H185 Q191,153.0035910940867 191,159.0035910940867 V268 Z" fill="url(#g-muted)"/><text x="172" y="171.0035910940867" text-anchor="middle" font-size="12.5" font-weight="700" fill="#1b2038">7.7k</text></g><text x="172" y="143.0035910940867" text-anchor="middle" font-size="10.5" font-weight="500" fill="#5b6177">Codex</text><g><title>OpenCode (opencode): 503</title><path d="M205,268 V266.4535950841912 Q205,260.4535950841912 211,260.4535950841912 H237 Q243,260.4535950841912 243,266.4535950841912 V268 Z" fill="url(#g-muted)"/><text x="224" y="253.4535950841912" text-anchor="middle" font-size="12.5" font-weight="700" fill="#14172b">503</text></g><polygon points="224.0,193.0 225.5,196.5 229.2,196.8 226.4,199.2 227.2,202.9 224.0,200.9 220.8,202.9 221.6,199.2 218.8,196.8 222.5,196.5" fill="#d99a00"/><text x="224" y="220.4535950841912" text-anchor="middle" font-size="10.5" font-weight="500" fill="#5b6177">Open</text><text x="224" y="232.4535950841912" text-anchor="middle" font-size="10.5" font-weight="500" fill="#5b6177">Code</text><g><title>OpenClaw (openclaw): 7.6k</title><path d="M257,268 V159.43867209320885 Q257,153.43867209320885 263,153.43867209320885 H289 Q295,153.43867209320885 295,159.43867209320885 V268 Z" fill="url(#g-muted)"/><text x="276" y="171.43867209320885" text-anchor="middle" font-size="12.5" font-weight="700" fill="#1b2038">7.6k</text></g><text x="276" y="131.43867209320885" text-anchor="middle" font-size="10.5" font-weight="500" fill="#5b6177">Open</text><text x="276" y="143.43867209320885" text-anchor="middle" font-size="10.5" font-weight="500" fill="#5b6177">Claw</text><g><title>Hermes (hermes): 12.5k</title><path d="M309,268 V86 Q309,80 315,80 H341 Q347,80 347,86 V268 Z" fill="url(#g-muted)"/><text x="328" y="98" text-anchor="middle" font-size="12.5" font-weight="700" fill="#1b2038">12.5k</text></g><text x="328" y="70" text-anchor="middle" font-size="10.5" font-weight="500" fill="#5b6177">Hermes</text><line x1="12" y1="268" x2="384" y2="268" stroke="#c9cddb" stroke-width="1.5"/><text x="198" y="300" text-anchor="middle" font-size="16" font-weight="600" fill="#14172b">System prompt + tools (tokens)</text><text x="198" y="319" text-anchor="middle" font-size="11" fill="#8a90a6">↓ lower is better</text></g>
<g transform="translate(1228,112)"><g><title>OpenHuman (openhuman): 76%</title><path d="M49,268 V125.66823682583635 Q49,119.66823682583635 55,119.66823682583635 H81 Q87,119.66823682583635 87,125.66823682583635 V268 Z" fill="url(#g-coral)"/><text x="68" y="137.66823682583635" text-anchor="middle" font-size="12.5" font-weight="700" fill="#ffffff">76%</text></g><text x="68" y="97.66823682583635" text-anchor="middle" font-size="10.5" font-weight="700" fill="#ff2f5f">Open</text><text x="68" y="109.66823682583635" text-anchor="middle" font-size="10.5" font-weight="700" fill="#ff2f5f">Human</text><g><title>ClaudeCode (claude-code): 80%</title><path d="M101,268 V117.20742435184383 Q101,111.20742435184383 107,111.20742435184383 H133 Q139,111.20742435184383 139,117.20742435184383 V268 Z" fill="url(#g-muted)"/><text x="120" y="129.20742435184383" text-anchor="middle" font-size="12.5" font-weight="700" fill="#1b2038">80%</text></g><text x="120" y="89.20742435184383" text-anchor="middle" font-size="10.5" font-weight="500" fill="#5b6177">Claude</text><text x="120" y="101.20742435184383" text-anchor="middle" font-size="10.5" font-weight="500" fill="#5b6177">Code</text><g><title>Codex (codex): 96%</title><path d="M153,268 V86 Q153,80 159,80 H185 Q191,80 191,86 V268 Z" fill="url(#g-muted)"/><text x="172" y="98" text-anchor="middle" font-size="12.5" font-weight="700" fill="#1b2038">96%</text></g><polygon points="172.0,42.5 173.5,46.0 177.2,46.3 174.4,48.8 175.2,52.4 172.0,50.5 168.8,52.4 169.6,48.8 166.8,46.3 170.5,46.0" fill="#d99a00"/><text x="172" y="70" text-anchor="middle" font-size="10.5" font-weight="500" fill="#5b6177">Codex</text><g><title>OpenCode (opencode): 81%</title><path d="M205,268 V115.22189507014434 Q205,109.22189507014434 211,109.22189507014434 H237 Q243,109.22189507014434 243,115.22189507014434 V268 Z" fill="url(#g-muted)"/><text x="224" y="127.22189507014434" text-anchor="middle" font-size="12.5" font-weight="700" fill="#1b2038">81%</text></g><text x="224" y="87.22189507014434" text-anchor="middle" font-size="10.5" font-weight="500" fill="#5b6177">Open</text><text x="224" y="99.22189507014434" text-anchor="middle" font-size="10.5" font-weight="500" fill="#5b6177">Code</text><g><title>OpenClaw (openclaw): 94%</title><path d="M257,268 V90.4005726126841 Q257,84.4005726126841 263,84.4005726126841 H289 Q295,84.4005726126841 295,90.4005726126841 V268 Z" fill="url(#g-muted)"/><text x="276" y="102.4005726126841" text-anchor="middle" font-size="12.5" font-weight="700" fill="#1b2038">94%</text></g><text x="276" y="62.4005726126841" text-anchor="middle" font-size="10.5" font-weight="500" fill="#5b6177">Open</text><text x="276" y="74.4005726126841" text-anchor="middle" font-size="10.5" font-weight="500" fill="#5b6177">Claw</text><g><title>Hermes (hermes): 82%</title><path d="M309,268 V113.34923221539972 Q309,107.34923221539972 315,107.34923221539972 H341 Q347,107.34923221539972 347,113.34923221539972 V268 Z" fill="url(#g-muted)"/><text x="328" y="125.34923221539972" text-anchor="middle" font-size="12.5" font-weight="700" fill="#1b2038">82%</text></g><text x="328" y="97.34923221539972" text-anchor="middle" font-size="10.5" font-weight="500" fill="#5b6177">Hermes</text><line x1="12" y1="268" x2="384" y2="268" stroke="#c9cddb" stroke-width="1.5"/><text x="198" y="300" text-anchor="middle" font-size="16" font-weight="600" fill="#14172b">Prompt cache hit</text><text x="198" y="319" text-anchor="middle" font-size="11" fill="#8a90a6">↑ higher is better</text></g>
<g transform="translate(1624,112)"><g><title>OpenHuman (openhuman): 2.0s</title><path d="M49,268 V86 Q49,80 55,80 H81 Q87,80 87,86 V268 Z" fill="url(#g-coral)"/><text x="68" y="98" text-anchor="middle" font-size="12.5" font-weight="700" fill="#ffffff">2.0s</text></g><text x="68" y="58" text-anchor="middle" font-size="10.5" font-weight="700" fill="#ff2f5f">Open</text><text x="68" y="70" text-anchor="middle" font-size="10.5" font-weight="700" fill="#ff2f5f">Human</text><g><title>ClaudeCode (claude-code): 1.2s</title><path d="M101,268 V160.24263604593108 Q101,154.24263604593108 107,154.24263604593108 H133 Q139,154.24263604593108 139,160.24263604593108 V268 Z" fill="url(#g-muted)"/><text x="120" y="172.24263604593108" text-anchor="middle" font-size="12.5" font-weight="700" fill="#1b2038">1.2s</text></g><text x="120" y="132.24263604593108" text-anchor="middle" font-size="10.5" font-weight="500" fill="#5b6177">Claude</text><text x="120" y="144.24263604593108" text-anchor="middle" font-size="10.5" font-weight="500" fill="#5b6177">Code</text><g><title>Codex (codex): 0.9s</title><path d="M153,268 V191.873190214678 Q153,185.873190214678 159,185.873190214678 H185 Q191,185.873190214678 191,191.873190214678 V268 Z" fill="url(#g-muted)"/><text x="172" y="203.873190214678" text-anchor="middle" font-size="12.5" font-weight="700" fill="#1b2038">0.9s</text></g><polygon points="172.0,148.4 173.5,151.9 177.2,152.2 174.4,154.6 175.2,158.3 172.0,156.3 168.8,158.3 169.6,154.6 166.8,152.2 170.5,151.9" fill="#d99a00"/><text x="172" y="175.873190214678" text-anchor="middle" font-size="10.5" font-weight="500" fill="#5b6177">Codex</text><g><title>OpenCode (opencode): 1.4s</title><path d="M205,268 V145.97603594608088 Q205,139.97603594608088 211,139.97603594608088 H237 Q243,139.97603594608088 243,145.97603594608088 V268 Z" fill="url(#g-muted)"/><text x="224" y="157.97603594608088" text-anchor="middle" font-size="12.5" font-weight="700" fill="#1b2038">1.4s</text></g><text x="224" y="117.97603594608088" text-anchor="middle" font-size="10.5" font-weight="500" fill="#5b6177">Open</text><text x="224" y="129.97603594608088" text-anchor="middle" font-size="10.5" font-weight="500" fill="#5b6177">Code</text><g><title>OpenClaw (openclaw): 1.1s</title><path d="M257,268 V174.60309535696456 Q257,168.60309535696456 263,168.60309535696456 H289 Q295,168.60309535696456 295,174.60309535696456 V268 Z" fill="url(#g-muted)"/><text x="276" y="186.60309535696456" text-anchor="middle" font-size="12.5" font-weight="700" fill="#1b2038">1.1s</text></g><text x="276" y="146.60309535696456" text-anchor="middle" font-size="10.5" font-weight="500" fill="#5b6177">Open</text><text x="276" y="158.60309535696456" text-anchor="middle" font-size="10.5" font-weight="500" fill="#5b6177">Claw</text><g><title>Hermes (hermes): 1.8s</title><path d="M309,268 V106.93060409385922 Q309,100.93060409385922 315,100.93060409385922 H341 Q347,100.93060409385922 347,106.93060409385922 V268 Z" fill="url(#g-muted)"/><text x="328" y="118.93060409385922" text-anchor="middle" font-size="12.5" font-weight="700" fill="#1b2038">1.8s</text></g><text x="328" y="90.93060409385922" text-anchor="middle" font-size="10.5" font-weight="500" fill="#5b6177">Hermes</text><line x1="12" y1="268" x2="384" y2="268" stroke="#c9cddb" stroke-width="1.5"/><text x="198" y="300" text-anchor="middle" font-size="16" font-weight="600" fill="#14172b">Time to first token (p50)</text><text x="198" y="319" text-anchor="middle" font-size="11" fill="#8a90a6">↓ lower is better</text></g>
<g transform="translate(40,456)"><g><title>OpenHuman (openhuman): 36s</title><path d="M49,268 V86 Q49,80 55,80 H81 Q87,80 87,86 V268 Z" fill="url(#g-coral)"/><text x="68" y="98" text-anchor="middle" font-size="12.5" font-weight="700" fill="#ffffff">36s</text></g><text x="68" y="58" text-anchor="middle" font-size="10.5" font-weight="700" fill="#ff2f5f">Open</text><text x="68" y="70" text-anchor="middle" font-size="10.5" font-weight="700" fill="#ff2f5f">Human</text><g><title>ClaudeCode (claude-code): 7s</title><path d="M101,268 V238.14526588845655 Q101,232.14526588845655 107,232.14526588845655 H133 Q139,232.14526588845655 139,238.14526588845655 V268 Z" fill="url(#g-muted)"/><text x="120" y="250.14526588845655" text-anchor="middle" font-size="12.5" font-weight="700" fill="#1b2038">7s</text></g><text x="120" y="210.14526588845655" text-anchor="middle" font-size="10.5" font-weight="500" fill="#5b6177">Claude</text><text x="120" y="222.14526588845655" text-anchor="middle" font-size="10.5" font-weight="500" fill="#5b6177">Code</text><g><title>Codex (codex): 7s</title><path d="M153,268 V238.43060959792479 Q153,232.43060959792479 159,232.43060959792479 H185 Q191,232.43060959792479 191,238.43060959792479 V268 Z" fill="url(#g-muted)"/><text x="172" y="250.43060959792479" text-anchor="middle" font-size="12.5" font-weight="700" fill="#1b2038">7s</text></g><polygon points="172.0,194.9 173.5,198.4 177.2,198.7 174.4,201.2 175.2,204.9 172.0,202.9 168.8,204.9 169.6,201.2 166.8,198.7 170.5,198.4" fill="#d99a00"/><text x="172" y="222.43060959792479" text-anchor="middle" font-size="10.5" font-weight="500" fill="#5b6177">Codex</text><g><title>OpenCode (opencode): 11s</title><path d="M205,268 V214.36835278858626 Q205,208.36835278858626 211,208.36835278858626 H237 Q243,208.36835278858626 243,214.36835278858626 V268 Z" fill="url(#g-muted)"/><text x="224" y="226.36835278858626" text-anchor="middle" font-size="12.5" font-weight="700" fill="#1b2038">11s</text></g><text x="224" y="186.36835278858626" text-anchor="middle" font-size="10.5" font-weight="500" fill="#5b6177">Open</text><text x="224" y="198.36835278858626" text-anchor="middle" font-size="10.5" font-weight="500" fill="#5b6177">Code</text><g><title>OpenClaw (openclaw): 14s</title><path d="M257,268 V203.46822308690014 Q257,197.46822308690014 263,197.46822308690014 H289 Q295,197.46822308690014 295,203.46822308690014 V268 Z" fill="url(#g-muted)"/><text x="276" y="215.46822308690014" text-anchor="middle" font-size="12.5" font-weight="700" fill="#1b2038">14s</text></g><text x="276" y="175.46822308690014" text-anchor="middle" font-size="10.5" font-weight="500" fill="#5b6177">Open</text><text x="276" y="187.46822308690014" text-anchor="middle" font-size="10.5" font-weight="500" fill="#5b6177">Claw</text><g><title>Hermes (hermes): 20s</title><path d="M309,268 V172.31387808041504 Q309,166.31387808041504 315,166.31387808041504 H341 Q347,166.31387808041504 347,172.31387808041504 V268 Z" fill="url(#g-muted)"/><text x="328" y="184.31387808041504" text-anchor="middle" font-size="12.5" font-weight="700" fill="#1b2038">20s</text></g><text x="328" y="156.31387808041504" text-anchor="middle" font-size="10.5" font-weight="500" fill="#5b6177">Hermes</text><line x1="12" y1="268" x2="384" y2="268" stroke="#c9cddb" stroke-width="1.5"/><text x="198" y="300" text-anchor="middle" font-size="16" font-weight="600" fill="#14172b">Wall time per task (p50)</text><text x="198" y="319" text-anchor="middle" font-size="11" fill="#8a90a6">↓ lower is better</text></g>
<g transform="translate(436,456)"><g><title>OpenHuman (openhuman): 7.3s</title><path d="M49,268 V109.22727272727275 Q49,103.22727272727275 55,103.22727272727275 H81 Q87,103.22727272727275 87,109.22727272727275 V268 Z" fill="url(#g-coral)"/><text x="68" y="121.22727272727275" text-anchor="middle" font-size="12.5" font-weight="700" fill="#ffffff">7.3s</text></g><text x="68" y="81.22727272727275" text-anchor="middle" font-size="10.5" font-weight="700" fill="#ff2f5f">Open</text><text x="68" y="93.22727272727275" text-anchor="middle" font-size="10.5" font-weight="700" fill="#ff2f5f">Human</text><g><title>ClaudeCode (claude-code): 0.2s</title><path d="M101,268 V268 Q101,264.3181818181818 104.68181818181819,264.3181818181818 H135.3181818181818 Q139,264.3181818181818 139,268 V268 Z" fill="url(#g-muted)"/><text x="120" y="257.3181818181818" text-anchor="middle" font-size="12.5" font-weight="700" fill="#14172b">0.2s</text></g><text x="120" y="224.3181818181818" text-anchor="middle" font-size="10.5" font-weight="500" fill="#5b6177">Claude</text><text x="120" y="236.3181818181818" text-anchor="middle" font-size="10.5" font-weight="500" fill="#5b6177">Code</text><g><title>Codex (codex): 0.1s</title><path d="M153,268 V268 Q153,265 156,265 H188 Q191,265 191,268 V268 Z" fill="url(#g-muted)"/><text x="172" y="258" text-anchor="middle" font-size="12.5" font-weight="700" fill="#14172b">0.1s</text></g><polygon points="172.0,209.5 173.5,213.0 177.2,213.3 174.4,215.8 175.2,219.4 172.0,217.5 168.8,219.4 169.6,215.8 166.8,213.3 170.5,213.0" fill="#d99a00"/><text x="172" y="237" text-anchor="middle" font-size="10.5" font-weight="500" fill="#5b6177">Codex</text><g><title>OpenCode (opencode): 1.4s</title><path d="M205,268 V241.1590909090909 Q205,235.1590909090909 211,235.1590909090909 H237 Q243,235.1590909090909 243,241.1590909090909 V268 Z" fill="url(#g-muted)"/><text x="224" y="253.1590909090909" text-anchor="middle" font-size="12.5" font-weight="700" fill="#1b2038">1.4s</text></g><text x="224" y="213.1590909090909" text-anchor="middle" font-size="10.5" font-weight="500" fill="#5b6177">Open</text><text x="224" y="225.1590909090909" text-anchor="middle" font-size="10.5" font-weight="500" fill="#5b6177">Code</text><g><title>OpenClaw (openclaw): 5.5s</title><path d="M257,268 V150.13636363636363 Q257,144.13636363636363 263,144.13636363636363 H289 Q295,144.13636363636363 295,150.13636363636363 V268 Z" fill="url(#g-muted)"/><text x="276" y="162.13636363636363" text-anchor="middle" font-size="12.5" font-weight="700" fill="#1b2038">5.5s</text></g><text x="276" y="122.13636363636363" text-anchor="middle" font-size="10.5" font-weight="500" fill="#5b6177">Open</text><text x="276" y="134.13636363636363" text-anchor="middle" font-size="10.5" font-weight="500" fill="#5b6177">Claw</text><g><title>Hermes (hermes): 8.3s</title><path d="M309,268 V86 Q309,80 315,80 H341 Q347,80 347,86 V268 Z" fill="url(#g-muted)"/><text x="328" y="98" text-anchor="middle" font-size="12.5" font-weight="700" fill="#1b2038">8.3s</text></g><text x="328" y="70" text-anchor="middle" font-size="10.5" font-weight="500" fill="#5b6177">Hermes</text><line x1="12" y1="268" x2="384" y2="268" stroke="#c9cddb" stroke-width="1.5"/><text x="198" y="300" text-anchor="middle" font-size="16" font-weight="600" fill="#14172b">Cold start to first call</text><text x="198" y="319" text-anchor="middle" font-size="11" fill="#8a90a6">↓ lower is better</text></g>
<g transform="translate(832,456)"><g><title>OpenHuman (openhuman): 0.9</title><path d="M49,268 V258.9927644584868 Q49,252.9927644584868 55,252.9927644584868 H81 Q87,252.9927644584868 87,258.9927644584868 V268 Z" fill="url(#g-coral)"/><text x="68" y="245.9927644584868" text-anchor="middle" font-size="12.5" font-weight="700" fill="#14172b">0.9</text></g><text x="68" y="212.9927644584868" text-anchor="middle" font-size="10.5" font-weight="700" fill="#ff2f5f">Open</text><text x="68" y="224.9927644584868" text-anchor="middle" font-size="10.5" font-weight="700" fill="#ff2f5f">Human</text><g><title>ClaudeCode (claude-code): 0.5</title><path d="M101,268 V266.6380836319732 Q101,260.6380836319732 107,260.6380836319732 H133 Q139,260.6380836319732 139,266.6380836319732 V268 Z" fill="url(#g-muted)"/><text x="120" y="253.6380836319732" text-anchor="middle" font-size="12.5" font-weight="700" fill="#14172b">0.5</text></g><polygon points="120.0,193.1 121.5,196.6 125.2,196.9 122.4,199.4 123.2,203.1 120.0,201.1 116.8,203.1 117.6,199.4 114.8,196.9 118.5,196.6" fill="#d99a00"/><text x="120" y="220.6380836319732" text-anchor="middle" font-size="10.5" font-weight="500" fill="#5b6177">Claude</text><text x="120" y="232.6380836319732" text-anchor="middle" font-size="10.5" font-weight="500" fill="#5b6177">Code</text><g><title>Codex (codex): 0.8</title><path d="M153,268 V261.82483553309066 Q153,255.82483553309066 159,255.82483553309066 H185 Q191,255.82483553309066 191,261.82483553309066 V268 Z" fill="url(#g-muted)"/><text x="172" y="248.82483553309066" text-anchor="middle" font-size="12.5" font-weight="700" fill="#14172b">0.8</text></g><text x="172" y="227.82483553309066" text-anchor="middle" font-size="10.5" font-weight="500" fill="#5b6177">Codex</text><g><title>OpenCode (opencode): 6.5</title><path d="M205,268 V171.122556762572 Q205,165.122556762572 211,165.122556762572 H237 Q243,165.122556762572 243,171.122556762572 V268 Z" fill="url(#g-muted)"/><text x="224" y="183.122556762572" text-anchor="middle" font-size="12.5" font-weight="700" fill="#1b2038">6.5</text></g><text x="224" y="143.122556762572" text-anchor="middle" font-size="10.5" font-weight="500" fill="#5b6177">Open</text><text x="224" y="155.122556762572" text-anchor="middle" font-size="10.5" font-weight="500" fill="#5b6177">Code</text><g><title>OpenClaw (openclaw): 11.8</title><path d="M257,268 V86 Q257,80 263,80 H289 Q295,80 295,86 V268 Z" fill="url(#g-muted)"/><text x="276" y="98" text-anchor="middle" font-size="12.5" font-weight="700" fill="#1b2038">11.8</text></g><text x="276" y="58" text-anchor="middle" font-size="10.5" font-weight="500" fill="#5b6177">Open</text><text x="276" y="70" text-anchor="middle" font-size="10.5" font-weight="500" fill="#5b6177">Claw</text><g><title>Hermes (hermes): 7.0</title><path d="M309,268 V161.88477568141997 Q309,155.88477568141997 315,155.88477568141997 H341 Q347,155.88477568141997 347,161.88477568141997 V268 Z" fill="url(#g-muted)"/><text x="328" y="173.88477568141997" text-anchor="middle" font-size="12.5" font-weight="700" fill="#1b2038">7.0</text></g><text x="328" y="145.88477568141997" text-anchor="middle" font-size="10.5" font-weight="500" fill="#5b6177">Hermes</text><line x1="12" y1="268" x2="384" y2="268" stroke="#c9cddb" stroke-width="1.5"/><text x="198" y="300" text-anchor="middle" font-size="16" font-weight="600" fill="#14172b">CPU-seconds per task</text><text x="198" y="319" text-anchor="middle" font-size="11" fill="#8a90a6">↓ lower is better</text></g>
<g transform="translate(1228,456)"><g><title>OpenHuman (openhuman): 73</title><path d="M49,268 V264.57871622074254 Q49,258.57871622074254 55,258.57871622074254 H81 Q87,258.57871622074254 87,264.57871622074254 V268 Z" fill="url(#g-coral)"/><text x="68" y="251.57871622074254" text-anchor="middle" font-size="12.5" font-weight="700" fill="#14172b">73</text></g><text x="68" y="218.57871622074254" text-anchor="middle" font-size="10.5" font-weight="700" fill="#ff2f5f">Open</text><text x="68" y="230.57871622074254" text-anchor="middle" font-size="10.5" font-weight="700" fill="#ff2f5f">Human</text><g><title>ClaudeCode (claude-code): 124</title><path d="M101,268 V258.01071825721135 Q101,252.01071825721138 107,252.01071825721138 H133 Q139,252.01071825721138 139,258.01071825721135 V268 Z" fill="url(#g-muted)"/><text x="120" y="245.01071825721138" text-anchor="middle" font-size="12.5" font-weight="700" fill="#14172b">124</text></g><text x="120" y="212.01071825721138" text-anchor="middle" font-size="10.5" font-weight="500" fill="#5b6177">Claude</text><text x="120" y="224.01071825721138" text-anchor="middle" font-size="10.5" font-weight="500" fill="#5b6177">Code</text><g><title>Codex (codex): 59</title><path d="M153,268 V266.3554710004153 Q153,260.3554710004153 159,260.3554710004153 H185 Q191,260.3554710004153 191,266.3554710004153 V268 Z" fill="url(#g-muted)"/><text x="172" y="253.35547100041532" text-anchor="middle" font-size="12.5" font-weight="700" fill="#14172b">59</text></g><polygon points="172.0,204.9 173.5,208.4 177.2,208.7 174.4,211.1 175.2,214.8 172.0,212.8 168.8,214.8 169.6,211.1 166.8,208.7 170.5,208.4" fill="#d99a00"/><text x="172" y="232.35547100041532" text-anchor="middle" font-size="10.5" font-weight="500" fill="#5b6177">Codex</text><g><title>OpenCode (opencode): 717</title><path d="M205,268 V181.49842843553637 Q205,175.49842843553637 211,175.49842843553637 H237 Q243,175.49842843553637 243,181.49842843553637 V268 Z" fill="url(#g-muted)"/><text x="224" y="193.49842843553637" text-anchor="middle" font-size="12.5" font-weight="700" fill="#1b2038">717</text></g><text x="224" y="153.49842843553637" text-anchor="middle" font-size="10.5" font-weight="500" fill="#5b6177">Open</text><text x="224" y="165.49842843553637" text-anchor="middle" font-size="10.5" font-weight="500" fill="#5b6177">Code</text><g><title>OpenClaw (openclaw): 1458</title><path d="M257,268 V86 Q257,80 263,80 H289 Q295,80 295,86 V268 Z" fill="url(#g-muted)"/><text x="276" y="98" text-anchor="middle" font-size="12.5" font-weight="700" fill="#1b2038">1458</text></g><text x="276" y="58" text-anchor="middle" font-size="10.5" font-weight="500" fill="#5b6177">Open</text><text x="276" y="70" text-anchor="middle" font-size="10.5" font-weight="500" fill="#5b6177">Claw</text><g><title>Hermes (hermes): 307</title><path d="M309,268 V234.3859751604389 Q309,228.3859751604389 315,228.3859751604389 H341 Q347,228.3859751604389 347,234.3859751604389 V268 Z" fill="url(#g-muted)"/><text x="328" y="246.3859751604389" text-anchor="middle" font-size="12.5" font-weight="700" fill="#1b2038">307</text></g><text x="328" y="218.3859751604389" text-anchor="middle" font-size="10.5" font-weight="500" fill="#5b6177">Hermes</text><line x1="12" y1="268" x2="384" y2="268" stroke="#c9cddb" stroke-width="1.5"/><text x="198" y="300" text-anchor="middle" font-size="16" font-weight="600" fill="#14172b">Peak RAM (process, MB)</text><text x="198" y="319" text-anchor="middle" font-size="11" fill="#8a90a6">↓ lower is better</text></g>
<text x="40" y="832" font-size="12" fill="#8a90a6">15 tasks, 1 attempt each: a smoke test, not a ranking. CPU/RAM are cgroup-wide per container. Cost from OpenRouter-reported usage. Source: bench/harnesses/results/micro-2/summary.json</text>
</svg>
